<?xml version="1.0" encoding="UTF-8" standalone="no"?>
<!-- Created with Inkscape (http://www.inkscape.org/) -->

<svg
   xmlns:dc="http://purl.org/dc/elements/1.1/"
   xmlns:cc="http://creativecommons.org/ns#"
   xmlns:rdf="http://www.w3.org/1999/02/22-rdf-syntax-ns#"
   xmlns:svg="http://www.w3.org/2000/svg"
   xmlns="http://www.w3.org/2000/svg"
   xmlns:sodipodi="http://sodipodi.sourceforge.net/DTD/sodipodi-0.dtd"
   xmlns:inkscape="http://www.inkscape.org/namespaces/inkscape"
   width="744.09448819"
   height="1052.3622047"
   id="svg2"
   version="1.1"
   inkscape:version="0.48.4 r9939"
   sodipodi:docname="New document 1">
  <defs
     id="defs4" />
  <sodipodi:namedview
     id="base"
     pagecolor="#ffffff"
     bordercolor="#666666"
     borderopacity="1.0"
     inkscape:pageopacity="0.0"
     inkscape:pageshadow="2"
     inkscape:zoom="1.979899"
     inkscape:cx="274.76165"
     inkscape:cy="863.36063"
     inkscape:document-units="px"
     inkscape:current-layer="layer1"
     showgrid="false"
     inkscape:window-width="1920"
     inkscape:window-height="999"
     inkscape:window-x="0"
     inkscape:window-y="0"
     inkscape:window-maximized="1" />
  <metadata
     id="metadata7">
    <rdf:RDF>
      <cc:Work
         rdf:about="">
        <dc:format>image/svg+xml</dc:format>
        <dc:type
           rdf:resource="http://purl.org/dc/dcmitype/StillImage" />
        <dc:title></dc:title>
      </cc:Work>
    </rdf:RDF>
  </metadata>
  <g
     inkscape:label="Layer 1"
     inkscape:groupmode="layer"
     id="layer1">
    <g
       id="g3243">
      <path
         transform="matrix(0.64197126,0,0,0.64197126,47.566678,56.537837)"
         d="m 149.28572,168.07646 a 16.428572,16.428572 0 1 1 -32.85714,0 16.428572,16.428572 0 1 1 32.85714,0 z"
         sodipodi:ry="16.428572"
         sodipodi:rx="16.428572"
         sodipodi:cy="168.07646"
         sodipodi:cx="132.85715"
         id="path2985"
         style="fill:#008000;fill-rule:evenodd;stroke:#000000;stroke-width:1px;stroke-linecap:butt;stroke-linejoin:miter;stroke-opacity:1"
         sodipodi:type="arc" />
      <path
         transform="matrix(0.64197126,0,0,0.64197126,76.174071,56.537837)"
         d="m 149.28572,168.07646 a 16.428572,16.428572 0 1 1 -32.85714,0 16.428572,16.428572 0 1 1 32.85714,0 z"
         sodipodi:ry="16.428572"
         sodipodi:rx="16.428572"
         sodipodi:cy="168.07646"
         sodipodi:cx="132.85715"
         id="path2985-7"
         style="fill:#d40000;fill-rule:evenodd;stroke:#000000;stroke-width:1px;stroke-linecap:butt;stroke-linejoin:miter;stroke-opacity:1"
         sodipodi:type="arc" />
      <path
         transform="matrix(0.64197126,0,0,0.64197126,104.78143,56.537837)"
         d="m 149.28572,168.07646 a 16.428572,16.428572 0 1 1 -32.85714,0 16.428572,16.428572 0 1 1 32.85714,0 z"
         sodipodi:ry="16.428572"
         sodipodi:rx="16.428572"
         sodipodi:cy="168.07646"
         sodipodi:cx="132.85715"
         id="path2985-7-3"
         style="fill:#008000;fill-rule:evenodd;stroke:#000000;stroke-width:1px;stroke-linecap:butt;stroke-linejoin:miter;stroke-opacity:1"
         sodipodi:type="arc" />
      <path
         transform="matrix(0.64197126,0,0,0.64197126,190.60358,56.537837)"
         d="m 149.28572,168.07646 a 16.428572,16.428572 0 1 1 -32.85714,0 16.428572,16.428572 0 1 1 32.85714,0 z"
         sodipodi:ry="16.428572"
         sodipodi:rx="16.428572"
         sodipodi:cy="168.07646"
         sodipodi:cx="132.85715"
         id="path2985-7-34"
         style="fill:#008000;fill-rule:evenodd;stroke:#000000;stroke-width:1px;stroke-linecap:butt;stroke-linejoin:miter;stroke-opacity:1"
         sodipodi:type="arc" />
      <path
         transform="matrix(0.64197126,0,0,0.64197126,161.99621,56.537837)"
         d="m 149.28572,168.07646 a 16.428572,16.428572 0 1 1 -32.85714,0 16.428572,16.428572 0 1 1 32.85714,0 z"
         sodipodi:ry="16.428572"
         sodipodi:rx="16.428572"
         sodipodi:cy="168.07646"
         sodipodi:cx="132.85715"
         id="path2985-7-9"
         style="fill:#008000;fill-rule:evenodd;stroke:#000000;stroke-width:1px;stroke-linecap:butt;stroke-linejoin:miter;stroke-opacity:1"
         sodipodi:type="arc" />
      <path
         transform="matrix(0.64197126,0,0,0.64197126,133.38883,56.537837)"
         d="m 149.28572,168.07646 a 16.428572,16.428572 0 1 1 -32.85714,0 16.428572,16.428572 0 1 1 32.85714,0 z"
         sodipodi:ry="16.428572"
         sodipodi:rx="16.428572"
         sodipodi:cy="168.07646"
         sodipodi:cx="132.85715"
         id="path2985-7-6"
         style="fill:#008000;fill-rule:evenodd;stroke:#000000;stroke-width:1px;stroke-linecap:butt;stroke-linejoin:miter;stroke-opacity:1"
         sodipodi:type="arc" />
      <path
         transform="matrix(0.64197126,0,0,0.64197126,219.21098,56.537837)"
         d="m 149.28572,168.07646 a 16.428572,16.428572 0 1 1 -32.85714,0 16.428572,16.428572 0 1 1 32.85714,0 z"
         sodipodi:ry="16.428572"
         sodipodi:rx="16.428572"
         sodipodi:cy="168.07646"
         sodipodi:cx="132.85715"
         id="path2985-7-90"
         style="fill:#008000;fill-rule:evenodd;stroke:#000000;stroke-width:1px;stroke-linecap:butt;stroke-linejoin:miter;stroke-opacity:1"
         sodipodi:type="arc" />
      <path
         transform="matrix(0.64197126,0,0,0.64197126,247.81838,56.537837)"
         d="m 149.28572,168.07646 a 16.428572,16.428572 0 1 1 -32.85714,0 16.428572,16.428572 0 1 1 32.85714,0 z"
         sodipodi:ry="16.428572"
         sodipodi:rx="16.428572"
         sodipodi:cy="168.07646"
         sodipodi:cx="132.85715"
         id="path2985-7-0"
         style="fill:#008000;fill-rule:evenodd;stroke:#000000;stroke-width:1px;stroke-linecap:butt;stroke-linejoin:miter;stroke-opacity:1"
         sodipodi:type="arc" />
      <path
         transform="matrix(0.64197126,0,0,0.64197126,276.42572,56.537837)"
         d="m 149.28572,168.07646 a 16.428572,16.428572 0 1 1 -32.85714,0 16.428572,16.428572 0 1 1 32.85714,0 z"
         sodipodi:ry="16.428572"
         sodipodi:rx="16.428572"
         sodipodi:cy="168.07646"
         sodipodi:cx="132.85715"
         id="path2985-7-2"
         style="fill:#d40000;fill-rule:evenodd;stroke:#000000;stroke-width:1px;stroke-linecap:butt;stroke-linejoin:miter;stroke-opacity:1"
         sodipodi:type="arc" />
      <path
         transform="matrix(0.64197126,0,0,0.64197126,305.03311,56.537837)"
         d="m 149.28572,168.07646 a 16.428572,16.428572 0 1 1 -32.85714,0 16.428572,16.428572 0 1 1 32.85714,0 z"
         sodipodi:ry="16.428572"
         sodipodi:rx="16.428572"
         sodipodi:cy="168.07646"
         sodipodi:cx="132.85715"
         id="path2985-7-68"
         style="fill:#008000;fill-rule:evenodd;stroke:#000000;stroke-width:1px;stroke-linecap:butt;stroke-linejoin:miter;stroke-opacity:1"
         sodipodi:type="arc" />
      <path
         transform="matrix(0.64197126,0,0,0.64197126,333.64051,56.537837)"
         d="m 149.28572,168.07646 a 16.428572,16.428572 0 1 1 -32.85714,0 16.428572,16.428572 0 1 1 32.85714,0 z"
         sodipodi:ry="16.428572"
         sodipodi:rx="16.428572"
         sodipodi:cy="168.07646"
         sodipodi:cx="132.85715"
         id="path2985-7-09"
         style="fill:#008000;fill-rule:evenodd;stroke:#000000;stroke-width:1px;stroke-linecap:butt;stroke-linejoin:miter;stroke-opacity:1"
         sodipodi:type="arc" />
      <path
         transform="matrix(0.64197126,0,0,0.64197126,362.2479,56.537837)"
         d="m 149.28572,168.07646 a 16.428572,16.428572 0 1 1 -32.85714,0 16.428572,16.428572 0 1 1 32.85714,0 z"
         sodipodi:ry="16.428572"
         sodipodi:rx="16.428572"
         sodipodi:cy="168.07646"
         sodipodi:cx="132.85715"
         id="path2985-7-06"
         style="fill:#008000;fill-rule:evenodd;stroke:#000000;stroke-width:1px;stroke-linecap:butt;stroke-linejoin:miter;stroke-opacity:1"
         sodipodi:type="arc" />
      <path
         transform="matrix(0.64197126,0,0,0.64197126,390.85527,56.537837)"
         d="m 149.28572,168.07646 a 16.428572,16.428572 0 1 1 -32.85714,0 16.428572,16.428572 0 1 1 32.85714,0 z"
         sodipodi:ry="16.428572"
         sodipodi:rx="16.428572"
         sodipodi:cy="168.07646"
         sodipodi:cx="132.85715"
         id="path2985-7-21"
         style="fill:#008000;fill-rule:evenodd;stroke:#000000;stroke-width:1px;stroke-linecap:butt;stroke-linejoin:miter;stroke-opacity:1"
         sodipodi:type="arc" />
      <path
         transform="matrix(0.64197126,0,0,0.64197126,419.46265,56.537837)"
         d="m 149.28572,168.07646 a 16.428572,16.428572 0 1 1 -32.85714,0 16.428572,16.428572 0 1 1 32.85714,0 z"
         sodipodi:ry="16.428572"
         sodipodi:rx="16.428572"
         sodipodi:cy="168.07646"
         sodipodi:cx="132.85715"
         id="path2985-7-05"
         style="fill:#008000;fill-rule:evenodd;stroke:#000000;stroke-width:1px;stroke-linecap:butt;stroke-linejoin:miter;stroke-opacity:1"
         sodipodi:type="arc" />
      <path
         inkscape:transform-center-y="41.416254"
         inkscape:transform-center-x="-234.86047"
         transform="matrix(0.64197126,0,0,0.64197126,448.07007,56.537837)"
         d="m 149.28572,168.07646 a 16.428572,16.428572 0 1 1 -32.85714,0 16.428572,16.428572 0 1 1 32.85714,0 z"
         sodipodi:ry="16.428572"
         sodipodi:rx="16.428572"
         sodipodi:cy="168.07646"
         sodipodi:cx="132.85715"
         id="path2985-7-7"
         style="fill:#008000;fill-rule:evenodd;stroke:#000000;stroke-width:1px;stroke-linecap:butt;stroke-linejoin:miter;stroke-opacity:1"
         sodipodi:type="arc" />
      <text
         sodipodi:linespacing="125%"
         id="text3107"
         y="170.49901"
         x="43.941635"
         style="font-size:40px;font-style:normal;font-weight:normal;line-height:125%;letter-spacing:0px;word-spacing:0px;fill:#000000;fill-opacity:1;stroke:none;font-family:Sans"
         xml:space="preserve"><tspan
           style="font-size:18px;font-style:normal;font-variant:normal;font-weight:normal;font-stretch:normal;font-family:Fira Sans;-inkscape-font-specification:Fira Sans"
           y="170.49901"
           x="43.941635"
           id="tspan3109"
           sodipodi:role="line">Model 1</tspan></text>
    </g>
    <g
       id="g3262"
       transform="translate(-0.30361938,-0.25256348)">
      <path
         transform="matrix(0.64197126,0,0,0.64197126,47.870308,85.832261)"
         d="m 149.28572,168.07646 c 0,9.07325 -7.35532,16.42857 -16.42857,16.42857 -9.07325,0 -16.42857,-7.35532 -16.42857,-16.42857 0,-9.07325 7.35532,-16.42857 16.42857,-16.42857 9.07325,0 16.42857,7.35532 16.42857,16.42857 z"
         sodipodi:ry="16.428572"
         sodipodi:rx="16.428572"
         sodipodi:cy="168.07646"
         sodipodi:cx="132.85715"
         id="path2985-6"
         style="fill:#008000;fill-rule:evenodd;stroke:#000000;stroke-width:1px;stroke-linecap:butt;stroke-linejoin:miter;stroke-opacity:1"
         sodipodi:type="arc" />
      <path
         transform="matrix(0.64197126,0,0,0.64197126,76.477698,85.832261)"
         d="m 149.28572,168.07646 c 0,9.07325 -7.35532,16.42857 -16.42857,16.42857 -9.07325,0 -16.42857,-7.35532 -16.42857,-16.42857 0,-9.07325 7.35532,-16.42857 16.42857,-16.42857 9.07325,0 16.42857,7.35532 16.42857,16.42857 z"
         sodipodi:ry="16.428572"
         sodipodi:rx="16.428572"
         sodipodi:cy="168.07646"
         sodipodi:cx="132.85715"
         id="path2985-7-1"
         style="fill:#008000;fill-rule:evenodd;stroke:#000000;stroke-width:1px;stroke-linecap:butt;stroke-linejoin:miter;stroke-opacity:1"
         sodipodi:type="arc" />
      <path
         transform="matrix(0.64197126,0,0,0.64197126,105.08506,85.832261)"
         d="m 149.28572,168.07646 c 0,9.07325 -7.35532,16.42857 -16.42857,16.42857 -9.07325,0 -16.42857,-7.35532 -16.42857,-16.42857 0,-9.07325 7.35532,-16.42857 16.42857,-16.42857 9.07325,0 16.42857,7.35532 16.42857,16.42857 z"
         sodipodi:ry="16.428572"
         sodipodi:rx="16.428572"
         sodipodi:cy="168.07646"
         sodipodi:cx="132.85715"
         id="path2985-7-3-5"
         style="fill:#008000;fill-rule:evenodd;stroke:#000000;stroke-width:1px;stroke-linecap:butt;stroke-linejoin:miter;stroke-opacity:1"
         sodipodi:type="arc" />
      <path
         transform="matrix(0.64197126,0,0,0.64197126,190.90721,85.832261)"
         d="m 149.28572,168.07646 c 0,9.07325 -7.35532,16.42857 -16.42857,16.42857 -9.07325,0 -16.42857,-7.35532 -16.42857,-16.42857 0,-9.07325 7.35532,-16.42857 16.42857,-16.42857 9.07325,0 16.42857,7.35532 16.42857,16.42857 z"
         sodipodi:ry="16.428572"
         sodipodi:rx="16.428572"
         sodipodi:cy="168.07646"
         sodipodi:cx="132.85715"
         id="path2985-7-34-2"
         style="fill:#008000;fill-rule:evenodd;stroke:#000000;stroke-width:1px;stroke-linecap:butt;stroke-linejoin:miter;stroke-opacity:1"
         sodipodi:type="arc" />
      <path
         transform="matrix(0.64197126,0,0,0.64197126,162.29984,85.832261)"
         d="m 149.28572,168.07646 c 0,9.07325 -7.35532,16.42857 -16.42857,16.42857 -9.07325,0 -16.42857,-7.35532 -16.42857,-16.42857 0,-9.07325 7.35532,-16.42857 16.42857,-16.42857 9.07325,0 16.42857,7.35532 16.42857,16.42857 z"
         sodipodi:ry="16.428572"
         sodipodi:rx="16.428572"
         sodipodi:cy="168.07646"
         sodipodi:cx="132.85715"
         id="path2985-7-9-0"
         style="fill:#d40000;fill-rule:evenodd;stroke:#000000;stroke-width:1px;stroke-linecap:butt;stroke-linejoin:miter;stroke-opacity:1"
         sodipodi:type="arc" />
      <path
         transform="matrix(0.64197126,0,0,0.64197126,133.69246,85.832261)"
         d="m 149.28572,168.07646 c 0,9.07325 -7.35532,16.42857 -16.42857,16.42857 -9.07325,0 -16.42857,-7.35532 -16.42857,-16.42857 0,-9.07325 7.35532,-16.42857 16.42857,-16.42857 9.07325,0 16.42857,7.35532 16.42857,16.42857 z"
         sodipodi:ry="16.428572"
         sodipodi:rx="16.428572"
         sodipodi:cy="168.07646"
         sodipodi:cx="132.85715"
         id="path2985-7-6-3"
         style="fill:#008000;fill-rule:evenodd;stroke:#000000;stroke-width:1px;stroke-linecap:butt;stroke-linejoin:miter;stroke-opacity:1"
         sodipodi:type="arc" />
      <path
         transform="matrix(0.64197126,0,0,0.64197126,219.51461,85.832261)"
         d="m 149.28572,168.07646 c 0,9.07325 -7.35532,16.42857 -16.42857,16.42857 -9.07325,0 -16.42857,-7.35532 -16.42857,-16.42857 0,-9.07325 7.35532,-16.42857 16.42857,-16.42857 9.07325,0 16.42857,7.35532 16.42857,16.42857 z"
         sodipodi:ry="16.428572"
         sodipodi:rx="16.428572"
         sodipodi:cy="168.07646"
         sodipodi:cx="132.85715"
         id="path2985-7-90-8"
         style="fill:#008000;fill-rule:evenodd;stroke:#000000;stroke-width:1px;stroke-linecap:butt;stroke-linejoin:miter;stroke-opacity:1"
         sodipodi:type="arc" />
      <path
         transform="matrix(0.64197126,0,0,0.64197126,248.12201,85.832261)"
         d="m 149.28572,168.07646 c 0,9.07325 -7.35532,16.42857 -16.42857,16.42857 -9.07325,0 -16.42857,-7.35532 -16.42857,-16.42857 0,-9.07325 7.35532,-16.42857 16.42857,-16.42857 9.07325,0 16.42857,7.35532 16.42857,16.42857 z"
         sodipodi:ry="16.428572"
         sodipodi:rx="16.428572"
         sodipodi:cy="168.07646"
         sodipodi:cx="132.85715"
         id="path2985-7-0-3"
         style="fill:#d40000;fill-rule:evenodd;stroke:#000000;stroke-width:1px;stroke-linecap:butt;stroke-linejoin:miter;stroke-opacity:1"
         sodipodi:type="arc" />
      <path
         transform="matrix(0.64197126,0,0,0.64197126,276.72935,85.832261)"
         d="m 149.28572,168.07646 c 0,9.07325 -7.35532,16.42857 -16.42857,16.42857 -9.07325,0 -16.42857,-7.35532 -16.42857,-16.42857 0,-9.07325 7.35532,-16.42857 16.42857,-16.42857 9.07325,0 16.42857,7.35532 16.42857,16.42857 z"
         sodipodi:ry="16.428572"
         sodipodi:rx="16.428572"
         sodipodi:cy="168.07646"
         sodipodi:cx="132.85715"
         id="path2985-7-2-3"
         style="fill:#008000;fill-rule:evenodd;stroke:#000000;stroke-width:1px;stroke-linecap:butt;stroke-linejoin:miter;stroke-opacity:1"
         sodipodi:type="arc" />
      <path
         transform="matrix(0.64197126,0,0,0.64197126,305.33674,85.832261)"
         d="m 149.28572,168.07646 c 0,9.07325 -7.35532,16.42857 -16.42857,16.42857 -9.07325,0 -16.42857,-7.35532 -16.42857,-16.42857 0,-9.07325 7.35532,-16.42857 16.42857,-16.42857 9.07325,0 16.42857,7.35532 16.42857,16.42857 z"
         sodipodi:ry="16.428572"
         sodipodi:rx="16.428572"
         sodipodi:cy="168.07646"
         sodipodi:cx="132.85715"
         id="path2985-7-68-1"
         style="fill:#008000;fill-rule:evenodd;stroke:#000000;stroke-width:1px;stroke-linecap:butt;stroke-linejoin:miter;stroke-opacity:1"
         sodipodi:type="arc" />
      <path
         transform="matrix(0.64197126,0,0,0.64197126,333.94414,85.832261)"
         d="m 149.28572,168.07646 c 0,9.07325 -7.35532,16.42857 -16.42857,16.42857 -9.07325,0 -16.42857,-7.35532 -16.42857,-16.42857 0,-9.07325 7.35532,-16.42857 16.42857,-16.42857 9.07325,0 16.42857,7.35532 16.42857,16.42857 z"
         sodipodi:ry="16.428572"
         sodipodi:rx="16.428572"
         sodipodi:cy="168.07646"
         sodipodi:cx="132.85715"
         id="path2985-7-09-6"
         style="fill:#008000;fill-rule:evenodd;stroke:#000000;stroke-width:1px;stroke-linecap:butt;stroke-linejoin:miter;stroke-opacity:1"
         sodipodi:type="arc" />
      <path
         transform="matrix(0.64197126,0,0,0.64197126,362.55153,85.832261)"
         d="m 149.28572,168.07646 c 0,9.07325 -7.35532,16.42857 -16.42857,16.42857 -9.07325,0 -16.42857,-7.35532 -16.42857,-16.42857 0,-9.07325 7.35532,-16.42857 16.42857,-16.42857 9.07325,0 16.42857,7.35532 16.42857,16.42857 z"
         sodipodi:ry="16.428572"
         sodipodi:rx="16.428572"
         sodipodi:cy="168.07646"
         sodipodi:cx="132.85715"
         id="path2985-7-06-0"
         style="fill:#008000;fill-rule:evenodd;stroke:#000000;stroke-width:1px;stroke-linecap:butt;stroke-linejoin:miter;stroke-opacity:1"
         sodipodi:type="arc" />
      <path
         transform="matrix(0.64197126,0,0,0.64197126,391.1589,85.832261)"
         d="m 149.28572,168.07646 c 0,9.07325 -7.35532,16.42857 -16.42857,16.42857 -9.07325,0 -16.42857,-7.35532 -16.42857,-16.42857 0,-9.07325 7.35532,-16.42857 16.42857,-16.42857 9.07325,0 16.42857,7.35532 16.42857,16.42857 z"
         sodipodi:ry="16.428572"
         sodipodi:rx="16.428572"
         sodipodi:cy="168.07646"
         sodipodi:cx="132.85715"
         id="path2985-7-21-1"
         style="fill:#d40000;fill-rule:evenodd;stroke:#000000;stroke-width:1px;stroke-linecap:butt;stroke-linejoin:miter;stroke-opacity:1"
         sodipodi:type="arc" />
      <path
         transform="matrix(0.64197126,0,0,0.64197126,419.76628,85.832261)"
         d="m 149.28572,168.07646 c 0,9.07325 -7.35532,16.42857 -16.42857,16.42857 -9.07325,0 -16.42857,-7.35532 -16.42857,-16.42857 0,-9.07325 7.35532,-16.42857 16.42857,-16.42857 9.07325,0 16.42857,7.35532 16.42857,16.42857 z"
         sodipodi:ry="16.428572"
         sodipodi:rx="16.428572"
         sodipodi:cy="168.07646"
         sodipodi:cx="132.85715"
         id="path2985-7-05-5"
         style="fill:#008000;fill-rule:evenodd;stroke:#000000;stroke-width:1px;stroke-linecap:butt;stroke-linejoin:miter;stroke-opacity:1"
         sodipodi:type="arc" />
      <path
         inkscape:transform-center-y="41.416254"
         inkscape:transform-center-x="-234.86047"
         transform="matrix(0.64197126,0,0,0.64197126,448.3737,85.832261)"
         d="m 149.28572,168.07646 c 0,9.07325 -7.35532,16.42857 -16.42857,16.42857 -9.07325,0 -16.42857,-7.35532 -16.42857,-16.42857 0,-9.07325 7.35532,-16.42857 16.42857,-16.42857 9.07325,0 16.42857,7.35532 16.42857,16.42857 z"
         sodipodi:ry="16.428572"
         sodipodi:rx="16.428572"
         sodipodi:cy="168.07646"
         sodipodi:cx="132.85715"
         id="path2985-7-7-7"
         style="fill:#008000;fill-rule:evenodd;stroke:#000000;stroke-width:1px;stroke-linecap:butt;stroke-linejoin:miter;stroke-opacity:1"
         sodipodi:type="arc" />
      <text
         sodipodi:linespacing="125%"
         id="text3107-2"
         y="199.79343"
         x="44.245255"
         style="font-size:40px;font-style:normal;font-weight:normal;line-height:125%;letter-spacing:0px;word-spacing:0px;fill:#000000;fill-opacity:1;stroke:none;font-family:Sans"
         xml:space="preserve"><tspan
           style="font-size:18px;font-style:normal;font-variant:normal;font-weight:normal;font-stretch:normal;font-family:Fira Sans;-inkscape-font-specification:Fira Sans"
           y="199.79343"
           x="44.245255"
           id="tspan3109-2"
           sodipodi:role="line">Model 2</tspan></text>
    </g>
    <g
       id="g3281"
       transform="translate(-0.3036232,0)">
      <path
         transform="matrix(0.64197126,0,0,0.64197126,47.870309,114.6216)"
         d="m 149.28572,168.07646 c 0,9.07325 -7.35532,16.42857 -16.42857,16.42857 -9.07325,0 -16.42857,-7.35532 -16.42857,-16.42857 0,-9.07325 7.35532,-16.42857 16.42857,-16.42857 9.07325,0 16.42857,7.35532 16.42857,16.42857 z"
         sodipodi:ry="16.428572"
         sodipodi:rx="16.428572"
         sodipodi:cy="168.07646"
         sodipodi:cx="132.85715"
         id="path2985-6-1"
         style="fill:#008000;fill-rule:evenodd;stroke:#000000;stroke-width:1px;stroke-linecap:butt;stroke-linejoin:miter;stroke-opacity:1"
         sodipodi:type="arc" />
      <path
         transform="matrix(0.64197126,0,0,0.64197126,76.477699,114.6216)"
         d="m 149.28572,168.07646 c 0,9.07325 -7.35532,16.42857 -16.42857,16.42857 -9.07325,0 -16.42857,-7.35532 -16.42857,-16.42857 0,-9.07325 7.35532,-16.42857 16.42857,-16.42857 9.07325,0 16.42857,7.35532 16.42857,16.42857 z"
         sodipodi:ry="16.428572"
         sodipodi:rx="16.428572"
         sodipodi:cy="168.07646"
         sodipodi:cx="132.85715"
         id="path2985-7-1-8"
         style="fill:#008000;fill-rule:evenodd;stroke:#000000;stroke-width:1px;stroke-linecap:butt;stroke-linejoin:miter;stroke-opacity:1"
         sodipodi:type="arc" />
      <path
         transform="matrix(0.64197126,0,0,0.64197126,105.08506,114.6216)"
         d="m 149.28572,168.07646 c 0,9.07325 -7.35532,16.42857 -16.42857,16.42857 -9.07325,0 -16.42857,-7.35532 -16.42857,-16.42857 0,-9.07325 7.35532,-16.42857 16.42857,-16.42857 9.07325,0 16.42857,7.35532 16.42857,16.42857 z"
         sodipodi:ry="16.428572"
         sodipodi:rx="16.428572"
         sodipodi:cy="168.07646"
         sodipodi:cx="132.85715"
         id="path2985-7-3-5-3"
         style="fill:#008000;fill-rule:evenodd;stroke:#000000;stroke-width:1px;stroke-linecap:butt;stroke-linejoin:miter;stroke-opacity:1"
         sodipodi:type="arc" />
      <path
         transform="matrix(0.64197126,0,0,0.64197126,190.90722,114.6216)"
         d="m 149.28572,168.07646 c 0,9.07325 -7.35532,16.42857 -16.42857,16.42857 -9.07325,0 -16.42857,-7.35532 -16.42857,-16.42857 0,-9.07325 7.35532,-16.42857 16.42857,-16.42857 9.07325,0 16.42857,7.35532 16.42857,16.42857 z"
         sodipodi:ry="16.428572"
         sodipodi:rx="16.428572"
         sodipodi:cy="168.07646"
         sodipodi:cx="132.85715"
         id="path2985-7-34-2-1"
         style="fill:#008000;fill-rule:evenodd;stroke:#000000;stroke-width:1px;stroke-linecap:butt;stroke-linejoin:miter;stroke-opacity:1"
         sodipodi:type="arc" />
      <path
         transform="matrix(0.64197126,0,0,0.64197126,162.29985,114.6216)"
         d="m 149.28572,168.07646 c 0,9.07325 -7.35532,16.42857 -16.42857,16.42857 -9.07325,0 -16.42857,-7.35532 -16.42857,-16.42857 0,-9.07325 7.35532,-16.42857 16.42857,-16.42857 9.07325,0 16.42857,7.35532 16.42857,16.42857 z"
         sodipodi:ry="16.428572"
         sodipodi:rx="16.428572"
         sodipodi:cy="168.07646"
         sodipodi:cx="132.85715"
         id="path2985-7-9-0-5"
         style="fill:#008000;fill-rule:evenodd;stroke:#000000;stroke-width:1px;stroke-linecap:butt;stroke-linejoin:miter;stroke-opacity:1"
         sodipodi:type="arc" />
      <path
         transform="matrix(0.64197126,0,0,0.64197126,133.69246,114.6216)"
         d="m 149.28572,168.07646 c 0,9.07325 -7.35532,16.42857 -16.42857,16.42857 -9.07325,0 -16.42857,-7.35532 -16.42857,-16.42857 0,-9.07325 7.35532,-16.42857 16.42857,-16.42857 9.07325,0 16.42857,7.35532 16.42857,16.42857 z"
         sodipodi:ry="16.428572"
         sodipodi:rx="16.428572"
         sodipodi:cy="168.07646"
         sodipodi:cx="132.85715"
         id="path2985-7-6-3-6"
         style="fill:#d40000;fill-rule:evenodd;stroke:#000000;stroke-width:1px;stroke-linecap:butt;stroke-linejoin:miter;stroke-opacity:1"
         sodipodi:type="arc" />
      <path
         transform="matrix(0.64197126,0,0,0.64197126,219.51462,114.6216)"
         d="m 149.28572,168.07646 c 0,9.07325 -7.35532,16.42857 -16.42857,16.42857 -9.07325,0 -16.42857,-7.35532 -16.42857,-16.42857 0,-9.07325 7.35532,-16.42857 16.42857,-16.42857 9.07325,0 16.42857,7.35532 16.42857,16.42857 z"
         sodipodi:ry="16.428572"
         sodipodi:rx="16.428572"
         sodipodi:cy="168.07646"
         sodipodi:cx="132.85715"
         id="path2985-7-90-8-1"
         style="fill:#008000;fill-rule:evenodd;stroke:#000000;stroke-width:1px;stroke-linecap:butt;stroke-linejoin:miter;stroke-opacity:1"
         sodipodi:type="arc" />
      <path
         transform="matrix(0.64197126,0,0,0.64197126,248.12202,114.6216)"
         d="m 149.28572,168.07646 c 0,9.07325 -7.35532,16.42857 -16.42857,16.42857 -9.07325,0 -16.42857,-7.35532 -16.42857,-16.42857 0,-9.07325 7.35532,-16.42857 16.42857,-16.42857 9.07325,0 16.42857,7.35532 16.42857,16.42857 z"
         sodipodi:ry="16.428572"
         sodipodi:rx="16.428572"
         sodipodi:cy="168.07646"
         sodipodi:cx="132.85715"
         id="path2985-7-0-3-3"
         style="fill:#008000;fill-rule:evenodd;stroke:#000000;stroke-width:1px;stroke-linecap:butt;stroke-linejoin:miter;stroke-opacity:1"
         sodipodi:type="arc" />
      <path
         transform="matrix(0.64197126,0,0,0.64197126,276.72936,114.6216)"
         d="m 149.28572,168.07646 c 0,9.07325 -7.35532,16.42857 -16.42857,16.42857 -9.07325,0 -16.42857,-7.35532 -16.42857,-16.42857 0,-9.07325 7.35532,-16.42857 16.42857,-16.42857 9.07325,0 16.42857,7.35532 16.42857,16.42857 z"
         sodipodi:ry="16.428572"
         sodipodi:rx="16.428572"
         sodipodi:cy="168.07646"
         sodipodi:cx="132.85715"
         id="path2985-7-2-3-6"
         style="fill:#008000;fill-rule:evenodd;stroke:#000000;stroke-width:1px;stroke-linecap:butt;stroke-linejoin:miter;stroke-opacity:1"
         sodipodi:type="arc" />
      <path
         transform="matrix(0.64197126,0,0,0.64197126,305.33675,114.6216)"
         d="m 149.28572,168.07646 c 0,9.07325 -7.35532,16.42857 -16.42857,16.42857 -9.07325,0 -16.42857,-7.35532 -16.42857,-16.42857 0,-9.07325 7.35532,-16.42857 16.42857,-16.42857 9.07325,0 16.42857,7.35532 16.42857,16.42857 z"
         sodipodi:ry="16.428572"
         sodipodi:rx="16.428572"
         sodipodi:cy="168.07646"
         sodipodi:cx="132.85715"
         id="path2985-7-68-1-1"
         style="fill:#d40000;fill-rule:evenodd;stroke:#000000;stroke-width:1px;stroke-linecap:butt;stroke-linejoin:miter;stroke-opacity:1"
         sodipodi:type="arc" />
      <path
         transform="matrix(0.64197126,0,0,0.64197126,333.94415,114.6216)"
         d="m 149.28572,168.07646 c 0,9.07325 -7.35532,16.42857 -16.42857,16.42857 -9.07325,0 -16.42857,-7.35532 -16.42857,-16.42857 0,-9.07325 7.35532,-16.42857 16.42857,-16.42857 9.07325,0 16.42857,7.35532 16.42857,16.42857 z"
         sodipodi:ry="16.428572"
         sodipodi:rx="16.428572"
         sodipodi:cy="168.07646"
         sodipodi:cx="132.85715"
         id="path2985-7-09-6-9"
         style="fill:#008000;fill-rule:evenodd;stroke:#000000;stroke-width:1px;stroke-linecap:butt;stroke-linejoin:miter;stroke-opacity:1"
         sodipodi:type="arc" />
      <path
         transform="matrix(0.64197126,0,0,0.64197126,362.55154,114.6216)"
         d="m 149.28572,168.07646 c 0,9.07325 -7.35532,16.42857 -16.42857,16.42857 -9.07325,0 -16.42857,-7.35532 -16.42857,-16.42857 0,-9.07325 7.35532,-16.42857 16.42857,-16.42857 9.07325,0 16.42857,7.35532 16.42857,16.42857 z"
         sodipodi:ry="16.428572"
         sodipodi:rx="16.428572"
         sodipodi:cy="168.07646"
         sodipodi:cx="132.85715"
         id="path2985-7-06-0-2"
         style="fill:#008000;fill-rule:evenodd;stroke:#000000;stroke-width:1px;stroke-linecap:butt;stroke-linejoin:miter;stroke-opacity:1"
         sodipodi:type="arc" />
      <path
         transform="matrix(0.64197126,0,0,0.64197126,391.15891,114.6216)"
         d="m 149.28572,168.07646 c 0,9.07325 -7.35532,16.42857 -16.42857,16.42857 -9.07325,0 -16.42857,-7.35532 -16.42857,-16.42857 0,-9.07325 7.35532,-16.42857 16.42857,-16.42857 9.07325,0 16.42857,7.35532 16.42857,16.42857 z"
         sodipodi:ry="16.428572"
         sodipodi:rx="16.428572"
         sodipodi:cy="168.07646"
         sodipodi:cx="132.85715"
         id="path2985-7-21-1-9"
         style="fill:#008000;fill-rule:evenodd;stroke:#000000;stroke-width:1px;stroke-linecap:butt;stroke-linejoin:miter;stroke-opacity:1"
         sodipodi:type="arc" />
      <path
         transform="matrix(0.64197126,0,0,0.64197126,419.76629,114.6216)"
         d="m 149.28572,168.07646 c 0,9.07325 -7.35532,16.42857 -16.42857,16.42857 -9.07325,0 -16.42857,-7.35532 -16.42857,-16.42857 0,-9.07325 7.35532,-16.42857 16.42857,-16.42857 9.07325,0 16.42857,7.35532 16.42857,16.42857 z"
         sodipodi:ry="16.428572"
         sodipodi:rx="16.428572"
         sodipodi:cy="168.07646"
         sodipodi:cx="132.85715"
         id="path2985-7-05-5-9"
         style="fill:#008000;fill-rule:evenodd;stroke:#000000;stroke-width:1px;stroke-linecap:butt;stroke-linejoin:miter;stroke-opacity:1"
         sodipodi:type="arc" />
      <path
         inkscape:transform-center-y="41.416254"
         inkscape:transform-center-x="-234.86047"
         transform="matrix(0.64197126,0,0,0.64197126,448.37371,114.6216)"
         d="m 149.28572,168.07646 c 0,9.07325 -7.35532,16.42857 -16.42857,16.42857 -9.07325,0 -16.42857,-7.35532 -16.42857,-16.42857 0,-9.07325 7.35532,-16.42857 16.42857,-16.42857 9.07325,0 16.42857,7.35532 16.42857,16.42857 z"
         sodipodi:ry="16.428572"
         sodipodi:rx="16.428572"
         sodipodi:cy="168.07646"
         sodipodi:cx="132.85715"
         id="path2985-7-7-7-8"
         style="fill:#008000;fill-rule:evenodd;stroke:#000000;stroke-width:1px;stroke-linecap:butt;stroke-linejoin:miter;stroke-opacity:1"
         sodipodi:type="arc" />
      <text
         sodipodi:linespacing="125%"
         id="text3107-2-2"
         y="228.58276"
         x="44.245258"
         style="font-size:40px;font-style:normal;font-weight:normal;line-height:125%;letter-spacing:0px;word-spacing:0px;fill:#000000;fill-opacity:1;stroke:none;font-family:Sans"
         xml:space="preserve"><tspan
           style="font-size:18px;font-style:normal;font-variant:normal;font-weight:normal;font-stretch:normal;font-family:Fira Sans;-inkscape-font-specification:Fira Sans"
           y="228.58276"
           x="44.245258"
           id="tspan3109-2-6"
           sodipodi:role="line">Model 3</tspan></text>
    </g>
  </g>
</svg>
